<svg width="250" height="250" viewBox="0 0 250 250" fill="none" xmlns="http://www.w3.org/2000/svg">
<circle cx="125" cy="125" r="125" fill="black"/>
<path d="M77.4375 130.234L84.3281 93.8125H94.8398L83.4844 145H72.8672L64.5352 110.758L56.2031 145H45.5859L34.2305 93.8125H44.7422L51.668 130.164L60.1055 93.8125H69.0352L77.4375 130.234ZM118.219 116.875L128.871 93.8125H140.402L123.598 126.438V145H112.875V126.438L96.0703 93.8125H107.637L118.219 116.875ZM168.703 134.453H150.211L146.695 145H135.48L154.535 93.8125H164.309L183.469 145H172.254L168.703 134.453ZM153.059 125.91H165.855L159.422 106.75L153.059 125.91ZM192.996 129.285C192.996 126.004 193.395 123.391 194.191 121.445C194.988 119.5 196.441 117.59 198.551 115.715C200.684 113.816 202.102 112.281 202.805 111.109C203.508 109.914 203.859 108.66 203.859 107.348C203.859 103.387 202.031 101.406 198.375 101.406C196.641 101.406 195.246 101.945 194.191 103.023C193.16 104.078 192.621 105.543 192.574 107.418H182.379C182.426 102.941 183.867 99.4375 186.703 96.9062C189.562 94.375 193.453 93.1094 198.375 93.1094C203.344 93.1094 207.199 94.3164 209.941 96.7305C212.684 99.1211 214.055 102.508 214.055 106.891C214.055 108.883 213.609 110.77 212.719 112.551C211.828 114.309 210.27 116.266 208.043 118.422L205.195 121.129C203.414 122.84 202.395 124.844 202.137 127.141L201.996 129.285H192.996ZM191.977 140.078C191.977 138.508 192.504 137.219 193.559 136.211C194.637 135.18 196.008 134.664 197.672 134.664C199.336 134.664 200.695 135.18 201.75 136.211C202.828 137.219 203.367 138.508 203.367 140.078C203.367 141.625 202.84 142.902 201.785 143.91C200.754 144.918 199.383 145.422 197.672 145.422C195.961 145.422 194.578 144.918 193.523 143.91C192.492 142.902 191.977 141.625 191.977 140.078Z" fill="white"/>
<path d="M33 152.031H216.621V155.547H33V152.031Z" fill="white"/>
</svg>
